HIERARCHY
ROOT Hips
{
	OFFSET 0.000000 0.000000 0.000000
	CHANNELS 6 Xposition Yposition Zposition Zrotation Yrotation Xrotation 
	JOINT LHipJoint
	{
		OFFSET 0.000000 0.000000 0.000000
		CHANNELS 3 Zrotation Yrotation Xrotation
		JOINT LeftUpLeg
		{
			OFFSET 1.363060 -1.794630 0.839290
			CHANNELS 3 Zrotation Yrotation Xrotation
			JOINT LeftLeg
			{
				OFFSET 2.448110 -6.726130 0.000000
				CHANNELS 3 Zrotation Yrotation Xrotation
				JOINT LeftFoot
				{
					OFFSET 2.562200 -7.039590 0.000000
					CHANNELS 3 Zrotation Yrotation Xrotation
					JOINT LeftToeBase
					{
						OFFSET 0.157640 -0.433110 2.322550
						CHANNELS 3 Zrotation Yrotation Xrotation
						End Site
						{
							OFFSET 0.000000 0.000000 0.000000
						}
					}
				}
			}
		}
	}
	JOINT RHipJoint
	{
		OFFSET 0.000000 0.000000 0.000000
		CHANNELS 3 Zrotation Yrotation Xrotation
		JOINT RightUpLeg
		{
			OFFSET -1.305520 -1.794630 0.839290
			CHANNELS 3 Zrotation Yrotation Xrotation
			JOINT RightLeg
			{
				OFFSET -2.542530 -6.985550 0.000000
				CHANNELS 3 Zrotation Yrotation Xrotation
				JOINT RightFoot
				{
					OFFSET -2.568260 -7.056230 0.000000
					CHANNELS 3 Zrotation Yrotation Xrotation
					JOINT RightToeBase
					{
						OFFSET -0.164730 -0.452590 2.363150
						CHANNELS 3 Zrotation Yrotation Xrotation
						End Site
						{
							OFFSET 0.000000 0.000000 0.000000
						}
					}
				}
			}
		}
	}
	JOINT LowerBack
	{
		OFFSET 0.000000 0.000000 0.000000
		CHANNELS 3 Zrotation Yrotation Xrotation
		JOINT Spine
		{
			OFFSET 0.028270 2.035590 -0.193380
			CHANNELS 3 Zrotation Yrotation Xrotation
			JOINT Spine1
			{
				OFFSET 0.056720 2.048850 -0.042750
				CHANNELS 3 Zrotation Yrotation Xrotation
				JOINT Neck
				{
					OFFSET 0.000000 0.000000 0.000000
					CHANNELS 3 Zrotation Yrotation Xrotation
					JOINT Neck1
					{
						OFFSET -0.054170 1.746240 0.172020
						CHANNELS 3 Zrotation Yrotation Xrotation
						JOINT Head
						{
							OFFSET 0.104070 1.761360 -0.123970
							CHANNELS 3 Zrotation Yrotation Xrotation
							End Site
							{
								OFFSET 0.000000 0.000000 0.000000
							}
						}
					}
				}
				JOINT LeftShoulder
				{
					OFFSET 0.000000 0.000000 0.000000
					CHANNELS 3 Zrotation Yrotation Xrotation
					JOINT LeftArm
					{
						OFFSET 3.362410 1.200890 -0.311210
						CHANNELS 3 Zrotation Yrotation Xrotation
						JOINT LeftForeArm
						{
							OFFSET 4.983000 -0.000000 -0.000000
							CHANNELS 3 Zrotation Yrotation Xrotation
							JOINT LeftHand
							{
								OFFSET 3.483560 -0.000000 -0.000000
								CHANNELS 3 Zrotation Yrotation Xrotation
								JOINT LeftFingerBase
								{
									OFFSET 0.000000 0.000000 0.000000
									CHANNELS 3 Zrotation Yrotation Xrotation
									JOINT LeftHandIndex1
									{
										OFFSET 0.715260 -0.000000 -0.000000
										CHANNELS 3 Zrotation Yrotation Xrotation
										End Site
										{
											OFFSET 0.000000 0.000000 0.000000
										}
									}
								}
								JOINT LThumb
								{
									OFFSET 0.000000 0.000000 0.000000
									CHANNELS 3 Zrotation Yrotation Xrotation
									End Site
									{
										OFFSET 0.000000 0.000000 0.000000
									}
								}
							}
						}
					}
				}
				JOINT RightShoulder
				{
					OFFSET 0.000000 0.000000 0.000000
					CHANNELS 3 Zrotation Yrotation Xrotation
					JOINT RightArm
					{
						OFFSET -3.136600 1.374050 -0.404650
						CHANNELS 3 Zrotation Yrotation Xrotation
						JOINT RightForeArm
						{
							OFFSET -5.241900 -0.000000 -0.000000
							CHANNELS 3 Zrotation Yrotation Xrotation
							JOINT RightHand
							{
								OFFSET -3.444170 -0.000000 -0.000000
								CHANNELS 3 Zrotation Yrotation Xrotation
								JOINT RightFingerBase
								{
									OFFSET 0.000000 0.000000 0.000000
									CHANNELS 3 Zrotation Yrotation Xrotation
									JOINT RightHandIndex1
									{
										OFFSET -0.622530 -0.000000 -0.000000
										CHANNELS 3 Zrotation Yrotation Xrotation
										End Site
										{
											OFFSET 0.000000 0.000000 0.000000
										}
									}
								}
								JOINT RThumb
								{
									OFFSET 0.000000 0.000000 0.000000
									CHANNELS 3 Zrotation Yrotation Xrotation
									End Site
									{
										OFFSET 0.000000 0.000000 0.000000
									}
								}
							}
						}
					}
				}
			}
		}
	}
}
MOTION
Frames: 7
Frame Time: 0.008333
0.692154 17.746359 -0.986630 112.876002 87.873508 114.039077 -10.435950 4.602236 -0.752850 -0.047752 18.454149 0.203556 -0.552214 1.647325 22.553305 1.352213 6.567517 21.041574 2.487700 -0.000001 -69.609000 10.473758 0.246440 1.628957 11.082859 -10.554410 -22.881247 1.747522 2.039204 -4.713641 -3.618456 -18.721797 -1.103032 -3.905700 -0.000000 -42.506700 -0.235462 -8.320040 -2.769864 0.145861 -8.468822 -2.478547 -4.367156 -8.504501 3.584832 10.090473 -25.073743 -11.334059 -1.756559 -0.077268 -0.882372 0.000000 0.000000 0.000000 10.003053 14.281513 -0.709676 -49.254843 8.991223 3.666482 -0.900151 -69.028828 -0.065236 14.353585 0.346667 0.011362 -0.216868 0.268629 -0.000000 0.000000 0.000000 0.000000 0.000000 0.000000 0.000000 15.121535 -25.227728 -0.129831 82.034448 -24.243793 -18.312125 4.109784 23.959533 0.003722 1.495717 1.282366 0.015850 0.122062 -0.011101 -0.000000 0.000000 0.000000 0.000000 0.000000 0.000000 0.000000 
0.933803 17.808424 -0.888973 115.438011 87.608935 116.259534 -10.323115 4.714518 -0.731980 0.446503 18.673417 0.204484 -0.466541 1.724147 23.556802 1.467642 6.213495 23.703566 2.462200 0.000000 -66.509300 10.680614 0.253888 1.635190 11.062876 -10.597590 -21.859656 1.691842 2.097485 -5.551145 -3.571658 -18.792554 -0.699302 -4.040900 -0.000000 -41.397200 -0.656721 -8.458498 -2.885352 0.098881 -8.585004 -2.479319 -4.221254 -8.629702 3.620870 9.862581 -25.374431 -11.122805 -1.687413 -0.074471 -0.823831 0.000000 0.000000 0.000000 10.399131 14.329099 -0.838980 -48.564807 9.261932 3.693478 -0.857838 -70.051507 -0.062987 13.471568 0.028582 -0.028938 -0.201398 0.280588 -0.000000 0.000000 0.000000 0.000000 0.000000 0.000000 0.000000 14.748611 -25.618539 -0.169326 82.267821 -25.441136 -18.807131 4.181111 23.749747 0.003173 1.803251 1.050512 0.015839 0.122983 -0.007655 -0.000000 0.000000 0.000000 0.000000 0.000000 0.000000 0.000000 
1.173215 17.861582 -0.792652 116.375581 87.355456 116.870202 -10.215130 4.783349 -0.739843 0.909244 18.997609 0.085119 -0.392872 1.779197 24.725326 1.586807 6.153032 25.704914 2.521101 -0.000000 -62.699200 10.859621 0.239567 1.654849 11.057990 -10.547852 -20.976525 1.627289 2.111572 -5.951577 -3.565258 -18.938862 -0.495699 -4.126900 0.000000 -40.216900 -1.087308 -8.573928 -2.981697 0.047799 -8.675882 -2.477645 -4.079242 -8.730433 3.651109 9.649292 -25.598773 -10.929696 -1.623438 -0.071826 -0.771234 0.000000 0.000000 0.000000 10.787821 14.387703 -0.947781 -48.104574 9.546169 3.483794 -0.823863 -70.868183 -0.060600 12.629623 -0.264655 -0.061340 -0.186084 0.291548 0.000000 0.000000 0.000000 0.000000 0.000000 0.000000 0.000000 14.391981 -25.916488 -0.200829 82.451624 -26.501251 -19.291311 4.256685 23.435652 0.002483 2.157667 0.779982 0.014225 0.123386 -0.004088 -0.000000 0.000000 0.000000 0.000000 0.000000 0.000000 0.000000 
1.409812 17.904844 -0.697681 116.015224 87.120610 116.191153 -10.105784 4.811994 -0.784322 1.337930 19.424029 -0.128154 -0.326235 1.821306 26.044958 1.703683 6.475333 27.006312 2.740800 0.000001 -58.628700 11.017242 0.207003 1.683452 11.071099 -10.409078 -20.205113 1.549392 2.085523 -5.962115 -3.603424 -19.193260 -0.469603 -4.177700 -0.000000 -38.951501 -1.523277 -8.666637 -3.044198 -0.008316 -8.742035 -2.470254 -3.946976 -8.806575 3.675412 9.461430 -25.750206 -10.760808 -1.565511 -0.069296 -0.726081 0.000000 0.000000 0.000000 11.153518 14.453129 -1.032835 -47.837992 9.853821 3.052639 -0.796650 -71.486093 -0.058189 11.849826 -0.511564 -0.084436 -0.171759 0.301092 0.000000 0.000000 0.000000 0.000000 0.000000 0.000000 0.000000 14.068001 -26.125689 -0.223668 82.581186 -27.401301 -19.753201 4.336042 23.022004 0.001657 2.573821 0.474940 0.010509 0.123129 -0.000439 -0.000000 0.000000 0.000000 0.000000 0.000000 0.000000 0.000000 
1.643151 17.937288 -0.604051 114.581834 86.903458 114.442017 -9.993882 4.803147 -0.870140 1.732692 19.946289 -0.416685 -0.261528 1.857734 27.506799 1.816034 7.218597 27.606244 3.155800 0.000001 -54.671000 11.157095 0.158581 1.715615 11.107449 -10.195379 -19.514674 1.455554 2.024920 -5.654092 -3.687317 -19.587072 -0.571538 -4.215800 -0.000000 -37.629500 -1.963069 -8.736946 -3.061427 -0.070670 -8.784099 -2.454583 -3.829682 -8.858021 3.694039 9.307332 -25.833685 -10.620093 -1.514320 -0.066866 -0.689297 0.000000 0.000000 0.000000 11.476031 14.523662 -1.091495 -47.717955 10.185356 2.425120 -0.774961 -71.913488 -0.055871 11.154217 -0.695617 -0.098518 -0.159189 0.308860 0.000000 0.000000 0.000000 0.000000 0.000000 0.000000 0.000000 13.789467 -26.251758 -0.237847 82.656238 -28.125494 -20.189072 4.417416 22.523040 0.000714 3.048805 0.142693 0.003890 0.122207 0.003201 -0.000000 0.000000 0.000000 0.000000 0.000000 0.000000 0.000000 
1.872989 17.958040 -0.511609 112.234445 86.691124 111.777101 -9.879446 4.760546 -0.996773 2.087625 20.550978 -0.767457 -0.195404 1.893329 29.102985 1.924240 8.367535 27.527942 3.751400 -0.000000 -51.039499 11.282063 0.097245 1.740089 11.174554 -9.959493 -18.894811 1.348610 1.933926 -5.075120 -3.809293 -20.100675 -0.770905 -4.244099 0.000000 -36.223300 -2.412841 -8.785824 -3.023648 -0.141683 -8.802944 -2.428414 -3.730984 -8.884968 3.707593 9.192696 -25.856992 -10.509503 -1.469872 -0.064489 -0.661290 0.000000 0.000000 0.000000 11.735599 14.599339 -1.122063 -47.692649 10.533390 1.634496 -0.757874 -72.159597 -0.053767 10.564248 -0.804598 -0.103987 -0.149021 0.314575 0.000000 0.000000 0.000000 0.000000 0.000000 0.000000 0.000000 13.564327 -26.303595 -0.243856 82.680393 -28.665577 -20.594384 4.497538 21.960924 -0.000307 3.561249 -0.204097 -0.006029 0.120750 0.006689 -0.000000 0.000000 0.000000 0.000000 0.000000 0.000000 0.000000 
2.099000 17.966329 -0.420164 109.149284 86.466067 108.363768 -9.763967 4.687135 -1.163268 2.397446 21.212112 -1.153222 -0.126141 1.930905 30.806914 2.032268 9.869317 26.840242 4.476900 -0.000000 -47.887401 11.395878 0.027035 1.744285 11.267522 -9.747476 -18.307059 1.230281 1.819399 -4.311518 -3.960776 -20.723173 -1.017560 -4.274400 0.000000 -34.731000 -2.880933 -8.814374 -2.918160 -0.224270 -8.799501 -2.389063 -3.654026 -8.887575 3.716216 9.122001 -25.826342 -10.429319 -1.432600 -0.062176 -0.642128 0.000000 0.000000 0.000000 11.913967 14.681808 -1.123576 -47.709455 10.883137 0.717233 -0.745019 -72.234155 -0.052014 10.100907 -0.831092 -0.102140 -0.141765 0.318063 0.000000 0.000000 0.000000 0.000000 0.000000 0.000000 0.000000 13.400563 -26.288611 -0.242996 82.662224 -29.020760 -20.971982 4.571707 21.367850 -0.001345 4.077248 -0.551206 -0.019149 0.118954 0.009853 -0.000000 0.000000 0.000000 0.000000 0.000000 0.000000 0.000000 
